<svg width="386" height="92" viewBox="0 0 386 92" fill="none" xmlns="http://www.w3.org/2000/svg">
<path d="M385.4 46C385.4 51.994 380.284 57.8912 370.539 63.3826C360.842 68.8465 346.771 73.7868 329.332 77.9433C294.464 86.2539 246.263 91.4 193 91.4C139.737 91.4 91.536 86.2539 56.6675 77.9433C39.2285 73.7868 25.1578 68.8465 15.4615 63.3826C5.71634 57.8912 0.6 51.994 0.6 46C0.6 40.006 5.71634 34.1088 15.4615 28.6174C25.1578 23.1535 39.2285 18.2132 56.6675 14.0567C91.536 5.74611 139.737 0.6 193 0.6C246.263 0.6 294.464 5.74611 329.332 14.0567C346.771 18.2132 360.842 23.1535 370.539 28.6174C380.284 34.1088 385.4 40.006 385.4 46Z" stroke="#326BFF" stroke-width="1.2"/>
</svg>
