<svg width="386" height="96" viewBox="0 0 386 96" fill="none" xmlns="http://www.w3.org/2000/svg">
<path d="M385.239 37.9499C385.555 43.9952 380.708 50.1794 371.259 56.1743C361.85 62.1442 348.046 67.8155 330.844 72.8779C296.448 83.0004 248.573 90.6569 195.377 93.4379C142.181 96.219 93.7693 93.5964 58.5047 87.1157C40.8684 83.8747 26.5487 79.6736 16.5683 74.7174C6.54612 69.7405 1.08023 64.0954 0.764185 58.0501C0.448139 52.0048 5.29559 45.8206 14.7441 39.8257C24.1533 33.8558 37.957 28.1845 55.1591 23.1221C89.5557 12.9995 137.431 5.3431 190.626 2.56204C243.822 -0.219008 292.234 2.40359 327.499 8.88424C345.135 12.1253 359.455 16.3264 369.435 21.2826C379.457 26.2595 384.923 31.9046 385.239 37.9499Z" stroke="#326BFF"/>
</svg>
